<svg height="512pt" viewBox="0 -35 512.00148 512" width="512pt" xmlns="http://www.w3.org/2000/svg"><path d="m378.320312 177.433594s0-36.191406 52.382813-36.191406c0 0 78.574219 0 61.113281 72.394531-11.484375 47.605469-26.75 110.875-83.035156 161.480469-74.28125 66.78125-180.011719 84.71875-271.101562 46.339843-30.113282-12.695312-61.652344-32.496093-91.121094-63.039062 0 0-17.460938-18.097657-34.921875-9.050781 0 0-18.183594 0-9.089844-15.710938 5.277344-9.128906 14.449219-15.226562 24.566406-17.054688 14.9375-2.703124 41.507813-2.058593 83.207031 16.410157 50.460938 22.351562 107.910157 24.089843 157.734376.253906 2.921874-1.402344 5.867187-2.882813 8.816406-4.472656 55.589844-29.839844 92.601562-87.128907 101.449218-151.359375zm0 0" fill="#dd352e"/><path d="m191.191406 394.609375c-4.871094 0-8.828125-3.945313-8.828125-8.828125 0-4.878906 3.945313-8.824219 8.828125-8.824219 31.152344 0 60.855469-6.65625 88.292969-19.785156 3.3125-1.589844 6.605469-3.257813 9.914063-5.03125 31.832031-17.097656 59.382812-42.832031 79.6875-74.425781 2.636718-4.09375 8.09375-5.3125 12.199218-2.648438 4.105469 2.632813 5.289063 8.097656 2.65625 12.199219-21.917968 34.109375-51.71875 61.925781-86.183594 80.421875-3.546874 1.914062-7.089843 3.707031-10.644531 5.410156-29.847656 14.273438-62.113281 21.511719-95.921875 21.511719zm0 0" fill="#b02721"/><path d="m494.136719.078125c-7.566407.726563-13.328125 7.140625-14.496094 14.65625-1.261719 8.15625-3.425781 13.496094-5.144531 16.683594-2.941406 5.4375-5.984375 10.785156-8.8125 16.277343-7.667969 14.917969-11.042969 19.605469-24.300782 49.40625-10.550781 23.722657-28.390624 41.339844-37.800781 48.5625-10.265625 3.9375-16.410156 9.929688-20.003906 15.695313 20.394531 3.257813 47.132813 11.777344 47.132813 34.179687 0 0 21.1875-21.757812 63.40625-6.574218-1.234376-14.929688-7.90625-25.1875-16.507813-32.230469-2.777344-21.972656-6.210937-59.992187 11.910156-86.113281 11.890625-17.136719 17.011719-33.871094 21.796875-49.832032 3.257813-10.902343-5.511718-21.820312-17.179687-20.710937zm0 0" fill="#23a24d"/></svg>