<svg xmlns="http://www.w3.org/2000/svg" xmlns:xlink="http://www.w3.org/1999/xlink"><symbol id="icon-cup-cake" viewBox="0 0 512 512"><path d="M384.742 277.777a12.047 12.047 0 00-9.87-2.851c-2.704-13.215-13.892-23.363-27.599-24.516.075-.129.16-.246.235-.375 10.625-18.71 2.117-43.105.308-47.793-7.23-18.816-21.726-29.804-31.796-35.469 7.687-19.503.55-40.53-1.032-44.718-4.468-11.723-12.129-21.723-22.77-29.723a77.326 77.326 0 00-12.144-7.488c2.653-12.274 4.75-28.711-3.09-46.574-8.886-20.243-25.785-31.211-38.402-36.852a16.508 16.508 0 00-14.805.71c-4.52 2.567-7.472 6.99-8.09 12.134-.292 2.386-.652 4.71-1.078 6.968-6.652-7.359-16.261-11.937-26.82-11.937-19.93 0-36.144 16.215-36.144 36.145 0 11.117 5.085 21.144 13.093 27.804-6.363 1.438-13.02 2.438-19.867 3.465-23.59 3.535-47.984 7.191-67.105 29.723-4.575 5.394-18.5 21.816-17.41 44.761.402 8.516 2.882 16.989 7.246 24.903-7.364 3.933-13.743 8.586-19.348 14.097-9.692 9.536-15.473 20.243-16.719 30.961-1.316 11.336 1.969 21.485 6.586 29.746-12.086 2.434-21.637 11.954-24.105 24.028-3.532-.567-7.125.453-9.871 2.851a12.08 12.08 0 00-3.997 11.004L29.48 476.137C32.727 496.918 50.352 512 71.383 512h246.144c21.032 0 38.657-15.082 41.903-35.863l29.304-187.36a12.064 12.064 0 00-3.992-11zM187.79 24.301c9.988 0 18.535 6.992 20.633 16.558-2.73 5.786-6.113 10.766-10.3 15.16-3.985 4.169-8.47 7.544-13.65 10.286-10.132-1.59-17.824-10.41-17.824-20.867.004-11.657 9.485-21.137 21.141-21.137zM46.441 222.887c.844-7.285 5.11-14.89 12.332-21.996 6.176-6.075 13.594-10.918 22.672-14.813 7.79-3.332 17.024-6.066 29.063-8.601 4.055-.856 6.652-4.832 5.797-8.887-.856-4.059-4.84-6.652-8.887-5.797-10.227 2.152-18.66 4.477-26.035 7.18-2.965-5.067-5.672-11.72-6.04-19.489-.808-17.043 9.852-29.617 13.876-34.355 15.465-18.227 36.066-21.313 57.875-24.582 14.027-2.102 28.531-4.277 41.828-10.676.082-.035.16-.074.238-.11.031-.015.059-.03.086-.042.043-.024.086-.043.129-.067 7.523-3.68 13.938-8.343 19.602-14.27 5.82-6.109 10.566-13.343 14.101-21.5l.082-.194.035-.09c3.618-8.383 6.106-17.977 7.387-28.535.02-.145.07-.583.598-.883.23-.133.715-.313 1.285-.059 10.2 4.559 23.816 13.32 30.777 29.18 6.875 15.664 3.828 30.465 1.2 41.601-17.532 23.114-37.887 40.547-60.536 51.805-20.21 10.05-40.933 14.793-60.316 18.418-4.074.762-6.762 4.684-5.996 8.754a7.503 7.503 0 008.754 5.996c20.449-3.824 42.382-8.863 64.238-19.73 23.586-11.723 44.805-29.438 63.144-52.704a62.192 62.192 0 019.47 5.883c8.343 6.274 14.32 14.04 17.757 23.055.777 2.059 7.39 20.535.387 35.578a30.78 30.78 0 01-1.746 3.215c-18.934 30.387-93.192 36.36-152.86 41.156-1.39.11-2.816.223-4.265.332-26.32 2.043-62.371 4.84-84.871 31.985a73.093 73.093 0 00-4.797 6.566c-4.13-6.453-7.383-14.547-6.364-23.324zm-2.23 42.41h10.594c.011 0 .023.004.035.004.012 0 .02-.004.027-.004h203.961a7.5 7.5 0 007.5-7.5 7.5 7.5 0 00-7.5-7.504H68.324c.168-.215.324-.438.492-.648.04-.051.079-.098.118-.145a6.18 6.18 0 01.242-.3c18.422-22.227 49.492-24.637 74.457-26.575 1.465-.113 2.906-.227 4.308-.34 62.832-5.05 133.594-10.746 160.356-42.64 8.039 4.437 19.8 13.128 25.515 27.988 3.083 7.992 6.688 24.351.645 34.996-1.781 3.137-4.336 5.656-7.781 7.664H292.46a7.503 7.503 0 000 15.004h36.101c.008 0 .012.004.02.004.012 0 .02-.004.027-.004h16.063c8.723 0 15.816 7.098 15.816 15.816v1.797c-.765.692-1.5 1.383-2.218 2.055-4.41 4.137-7.325 6.867-13.743 6.867-6.39 0-9.257-2.719-13.601-6.84-5.149-4.879-11.551-10.957-23.926-10.957s-18.781 6.078-23.93 10.957c-4.343 4.121-7.21 6.84-13.601 6.84s-9.258-2.719-13.602-6.84c-5.148-4.879-11.555-10.957-23.926-10.957-12.375 0-18.78 6.078-23.93 10.957-4.343 4.121-7.21 6.84-13.6 6.84-6.388 0-9.259-2.719-13.599-6.836-5.144-4.883-11.55-10.957-23.925-10.957-12.371 0-18.778 6.074-23.926 10.957-4.34 4.117-7.207 6.836-13.598 6.836-6.386 0-9.254-2.719-13.593-6.836-5.149-4.883-11.551-10.957-23.926-10.957-12.371 0-18.778 6.074-23.926 10.957-4.34 4.117-7.211 6.84-13.598 6.84-6.41 0-9.316-2.734-13.718-6.867-.715-.668-1.446-1.356-2.207-2.043v-1.813c0-8.718 7.093-15.816 15.816-15.816zm300.394 208.52v.003c-2.097 13.426-13.488 23.172-27.078 23.172h-11.25l15.848-169.215a7.508 7.508 0 00-6.773-8.172 7.502 7.502 0 00-8.168 6.774l-15.977 170.613h-37.105l7.773-169.57a7.503 7.503 0 00-7.152-7.84c-4.13-.184-7.649 3.012-7.836 7.152l-7.809 170.258h-37.121l-.035-169.918a7.504 7.504 0 00-15.008.004l.04 169.914h-37.122l-7.805-170.258a7.5 7.5 0 00-7.84-7.152 7.508 7.508 0 00-7.152 7.84l7.774 169.57H97.707L81.375 322.594a7.503 7.503 0 10-14.941 1.398l16.203 173h-11.25c-13.59 0-24.98-9.746-27.078-23.176l-28.47-181.824c1.477 1.086 2.895 2.418 4.49 3.914 5.187 4.871 11.64 10.934 23.991 10.934 12.371 0 18.778-6.078 23.926-10.957 4.344-4.121 7.211-6.84 13.598-6.84s9.258 2.719 13.597 6.84c5.145 4.879 11.551 10.957 23.922 10.957 12.375 0 18.778-6.078 23.926-10.957 4.344-4.121 7.211-6.84 13.598-6.84 6.39 0 9.258 2.719 13.597 6.84 5.149 4.879 11.555 10.957 23.926 10.957 12.375 0 18.781-6.074 23.93-10.957 4.344-4.117 7.21-6.84 13.601-6.84 6.387 0 9.258 2.723 13.602 6.84 5.145 4.879 11.55 10.957 23.926 10.957s18.781-6.074 23.93-10.957c4.34-4.117 7.21-6.84 13.601-6.84s9.258 2.723 13.602 6.84c5.148 4.879 11.55 10.957 23.925 10.957 12.352 0 18.813-6.063 24.008-10.93 1.602-1.5 3.028-2.84 4.512-3.926zm0 0"/></symbol><symbol id="icon-delivery" viewBox="0 0 60 60"><g class="icon-delivery__marker"><path d="M30 26c3.86 0 7-3.141 7-7s-3.14-7-7-7-7 3.141-7 7 3.14 7 7 7zm0-12c2.757 0 5 2.243 5 5s-2.243 5-5 5-5-2.243-5-5 2.243-5 5-5z"/><path d="M29.823 54.757L45.164 32.6c5.754-7.671 4.922-20.28-1.781-26.982C39.761 1.995 34.945 0 29.823 0s-9.938 1.995-13.56 5.617c-6.703 6.702-7.535 19.311-1.804 26.952l15.364 22.188zM17.677 7.031C20.922 3.787 25.235 2 29.823 2s8.901 1.787 12.146 5.031c6.05 6.049 6.795 17.437 1.573 24.399L29.823 51.243 16.082 31.4c-5.2-6.932-4.454-18.32 1.595-24.369z"/></g><path d="M42.117 43.007a1 1 0 00-.234 1.986C52.399 46.231 58 49.567 58 51.5c0 2.714-10.652 6.5-28 6.5S2 54.214 2 51.5c0-1.933 5.601-5.269 16.117-6.507a1 1 0 00-.234-1.986C7.354 44.247 0 47.739 0 51.5 0 55.724 10.305 60 30 60s30-4.276 30-8.5c0-3.761-7.354-7.253-17.883-8.493z"/></symbol><symbol id="icon-fast-food" viewBox="0 0 496 496"><path d="M472 272V168c0-13.232-10.768-24-24-24h-16c-6.168 0-11.744 2.408-16 6.24-4.256-3.84-9.832-6.24-16-6.24h-16c-6.168 0-11.744 2.408-16 6.24-4.256-3.84-9.832-6.24-16-6.24h-16c-13.232 0-24 10.768-24 24v102.656c-18.456-12.792-45.392-23.68-84.832-28.288l12.6-88.208c.152-1.064.232-2.144.232-3.224C240 138.288 229.712 128 217.064 128H144V56c0-4.408 3.592-8 8-8h64c13.232 0 24-10.768 24-24S229.232 0 216 0h-72c-26.472 0-48 21.528-48 48v80H22.936C10.288 128 0 138.288 0 150.936c0 1.08.08 2.16.232 3.248l19.28 134.944C.496 311.776 0 334.112 0 336c0 13.952 9.024 25.712 21.496 30.088A31.837 31.837 0 0016 384c0 8.528 3.4 16.232 8.856 21.976C10.056 414.16 0 429.92 0 448c0 26.472 21.528 48 48 48h448V296c0-13.232-10.768-24-24-24zm-48-104c0-4.408 3.592-8 8-8h16c4.408 0 8 3.592 8 8v104h-32V168zm-48 0c0-4.408 3.592-8 8-8h16c4.408 0 8 3.592 8 8v104h-32V168zm-48 0c0-4.408 3.592-8 8-8h16c4.408 0 8 3.592 8 8v104h-32V168zM200 16h16c4.408 0 8 3.592 8 8s-3.592 8-8 8h-16V16zm-32 0h16v16h-16V16zm-56 32c0-17.648 14.352-32 32-32h8v16c-13.232 0-24 10.768-24 24v72h-16V48zM17.224 160l-1.152-8.056A6.945 6.945 0 0122.936 144h194.128a6.945 6.945 0 016.936 6.936c0 .336-.024.672-.064.984l-1.16 8.08H200v16h20.488l-4.568 32H24.08l-4.568-32H184v-16H17.224zm196.416 64l-2.416 16.928A393.7 393.7 0 00184 240h-16c-69.712 0-110.432 16.232-134.296 35.352L26.368 224H213.64zM16 336c0-.8 1.736-80 152-80h16c149.224 0 151.96 76.784 152 80 0 8.824-7.176 16-16 16H32c-8.824 0-16-7.176-16-16zm32 64c-8.824 0-16-7.176-16-16s7.176-16 16-16h256c8.824 0 16 7.176 16 16s-7.176 16-16 16H48zm222.608 16l-32.824 38.296L150.24 416h120.368zM304 480H48c-17.648 0-32-14.352-32-32s14.352-32 32-32h62.328l131.888 57.704L291.68 416H304c17.648 0 32 14.352 32 32s-14.352 32-32 32zm23.152-74.024C332.6 400.232 336 392.528 336 384c0-5.856-1.696-11.272-4.448-16H448v80h-96c0-5.616-1.024-10.984-2.8-16H400v-16h-60.32c-3.584-3.992-7.8-7.408-12.528-10.024zM480 320h-16v16h16v144H339.68a47.803 47.803 0 009.52-16H464V352H347.552c2.752-4.728 4.448-10.144 4.448-16h96v-16h-98.712c-2.6-8.896-7.736-20.44-17.752-32H472c4.408 0 8 3.584 8 8v24z"/><path d="M416 416h16v16h-16zM104 272h16v16h-16zm32 16h16v16h-16zm32-16h16v16h-16zm48 24h16v16h-16zm40-24h16v16h-16zM56 304h16v16H56z"/></symbol><symbol id="icon-french-fries" viewBox="0 0 64 64"><path d="M26 51a6 6 0 106-6 6 6 0 00-6 6zm10 0a4 4 0 11-4-4 4 4 0 014 4z"/><path d="M61.92 13.64l-.76-2.1a1 1 0 00-1-.66l-2.79.12a1 1 0 00-.7.31l-2.9 3.05a1 1 0 101.45 1.38l2.61-2.75h1.7l.3.84L47.23 27H46a1 1 0 00-.34.07l9.06-16.19a1 1 0 000-.94l-1.63-3.21a1 1 0 00-.7-.53l-3.1-.59a1 1 0 00-1.06.49l-1.78 3.17.74-4.2a1 1 0 00-.81-1.16l-3-.52a1.15 1.15 0 00-.32 0L40 3.85a1 1 0 00-.84.81l-1.28 7.14c-.61-.16-1.24-.3-1.88-.41V4a1 1 0 00-.68-1l-3-1a1 1 0 00-.87.12l-3 2A1 1 0 0028 5v6.38a22.68 22.68 0 00-3.36.86l-1-4.53a1 1 0 00-.87-.78l-3.15-.31a1 1 0 00-.82.31l-2.52 2.61a1 1 0 000 1.41 1 1 0 001.42 0l2.15-2.26 1.94.19L28 36.2v4.16a13.12 13.12 0 01-2.64-1.2l-5.75-25.45a1 1 0 00-.87-.78l-3.15-.31a1 1 0 00-.82.31l-.08.07-1.07-3.95a1 1 0 00-.76-.72l-2.19-.44a1 1 0 00-1.07.48l-1.41 2.45a1.06 1.06 0 00-.1.76l1 3.68a1 1 0 001 .74h.27a1 1 0 00.7-1.23l-.89-3.28L11 10l.88.18 1.22 4.53-.8.84a1 1 0 00-.25.91L14.41 27H11a1 1 0 00-1 1.24l8 33a1 1 0 001 .76h26a1 1 0 001-.76l1.21-5a1 1 0 00-1.94-.48l-1 4.24H19.79l-7.52-31H17a15 15 0 0015 14 14.82 14.82 0 004.87-.83A15 15 0 0047 29h4.76l-5.55 22.76a1 1 0 001.94.48l5.82-24a1 1 0 000-.53l-.24-.71a22 22 0 00-1.09-2.76l9.07-9.54a1 1 0 00.21-1.06zM32.15 4.1l1.85.62v19.07a1 1 0 002 0V13.42q.78.15 1.53.36l-.64 3.64a1 1 0 00.81 1.16h.18a1 1 0 001-.83L41 5.72l2.25-.33 1.81.31-1.56 8.87L30 38.68V5.54zm-7.07 10.11a19.71 19.71 0 012.92-.8v13.72zM19 28a1 1 0 00-1-1h-1.54L14.1 16.53l1.78-1.87 1.94.19 5.06 22.4A13 13 0 0119 28zm12 13L49.62 7.71l1.92.36 1.17 2.3-16.79 30A12.76 12.76 0 0132 41h-1zm8-2l6-10.63a13 13 0 01-6 10.54zm12.61-12H50l1.17-1.23c.15.4.3.82.44 1.23z"/></symbol><symbol id="icon-hamburger" viewBox="0 0 512 512"><path d="M383.071 148.928c-3.905-3.904-10.237-3.904-14.143 0l-20 20c-3.905 3.905-3.905 10.237 0 14.143 3.907 3.906 10.238 3.905 14.143 0l20-20c3.905-3.905 3.905-10.237 0-14.143zm-240 0c-3.905-3.904-10.237-3.904-14.143 0l-20 20c-3.905 3.905-3.905 10.237 0 14.143 3.907 3.906 10.238 3.905 14.143 0l20-20c3.905-3.905 3.905-10.237 0-14.143zm190-40c-3.905-3.904-10.237-3.904-14.143 0l-20 20c-3.905 3.905-3.905 10.237 0 14.143 3.907 3.906 10.238 3.905 14.143 0l20-20c3.905-3.905 3.905-10.237 0-14.143zm-120 0c-3.905-3.904-10.237-3.904-14.143 0l-20 20c-3.905 3.905-3.905 10.237 0 14.143 3.907 3.906 10.238 3.905 14.143 0l20-20c3.905-3.905 3.905-10.237 0-14.143zm50 40c-3.905-3.904-10.237-3.904-14.143 0l-20 20c-3.905 3.905-3.905 10.237 0 14.143 3.907 3.906 10.238 3.905 14.143 0l20-20c3.905-3.905 3.905-10.237 0-14.143z"/><path d="M512 356c0-16.542-13.458-30-30-30h-10v-32.23c.412-.358.832-.701 1.237-1.07 6.491-5.917 20.049-9.7 28.889-9.812 5.522-.069 9.943-4.603 9.873-10.125-.069-5.479-4.532-9.874-9.997-9.874l-.128.001c-8.581.108-19.982 2.386-29.874 7.063V243.74c12.176-4.983 20.271-17.519 18.533-31.435C478.737 117.496 397.686 46 302 46h-92c-95.686 0-176.737 71.496-188.533 166.301-1.733 13.875 6.307 26.437 18.533 31.44v25.771c-9.929-4.498-21.357-6.748-30.131-6.622-5.522.072-9.94 4.608-9.868 10.131.072 5.478 4.535 9.868 9.997 9.868l.134-.001c8.942-.137 22.822 3.599 29.592 9.774.09.083.186.161.277.243V326H30c-16.574 0-30 13.424-30 30 0 14.865 10.87 27.233 25.078 29.589-2.337 6.169-2.505 12.909-.338 19.313C37.134 441.446 71.397 466 110 466h292c38.603 0 72.866-24.554 85.263-61.104 2.165-6.398 1.997-13.135-.339-19.303C500.864 383.301 512 371.17 512 356zM41.313 214.774C51.867 129.959 124.386 66 210 66h92c85.614 0 158.133 63.959 168.687 148.779.722 5.779-3.787 10.811-9.356 11.184-.066.004-.132.01-.198.016a5.866 5.866 0 01-.513.021H51.38c-5.89 0-10.82-5.186-10.067-11.226zm371.925 63.146c-21.975-20.039-51.502-20.039-73.477 0-14.349 13.084-32.175 13.084-46.523 0-21.975-20.039-51.502-20.039-73.477 0-14.349 13.084-32.175 13.084-46.523 0-21.975-20.038-51.502-20.04-73.479.002-12.161 11.098-26.73 12.859-39.759 5.053V246h392v37.555c-12.759 7.099-26.953 5.134-38.762-5.635zM452 305.243V326H60v-21.057c5.407 1.871 10.956 2.807 16.5 2.806 12.905 0 25.776-5.048 36.739-15.051 14.348-13.084 32.175-13.084 46.523 0 21.975 20.041 51.503 20.04 73.477 0 14.349-13.084 32.176-13.084 46.523 0 21.975 20.041 51.503 20.04 73.477 0 14.348-13.085 32.175-13.083 46.523 0 15.297 13.952 34.503 18.24 52.238 12.545zm16.32 93.236C458.68 426.902 432.028 446 402 446H110c-30.028 0-56.68-19.098-66.317-47.515C41.608 392.355 46.901 386 53.46 386h405.08c6.583 0 11.842 6.385 9.78 12.479zM482 366H30c-5.514 0-10-4.486-10-10 0-5.521 4.479-10 10-10h452c5.514 0 10 4.486 10 10 0 5.521-4.479 10-10 10z"/></symbol><symbol id="icon-milk" viewBox="0 0 64 64"><path d="M18.305 17.853A15.03 15.03 0 0017 24v33a5.006 5.006 0 005 5h20a5.006 5.006 0 005-5V24a15.03 15.03 0 00-1.3-6.147l-1.563-3.518a13.058 13.058 0 01-1.081-4.34A3 3 0 0046 7V5a3 3 0 00-3-3H21a3 3 0 00-3 3v2a3 3 0 002.949 2.995 13.058 13.058 0 01-1.081 4.34zM45 30v18H19V30zm-3 30H22a3 3 0 01-3-3v-7h2v6a2 2 0 002 2h8v-2h-8v-6h18v3h2v-3h2v7a3 3 0 01-3 3zM20 7V5a1 1 0 011-1h22a1 1 0 011 1v2a1 1 0 01-1 1H21a1 1 0 01-1-1zm1.7 8.147A15.012 15.012 0 0022.968 10h18.064a15.012 15.012 0 001.273 5.147l1.563 3.518A13.056 13.056 0 0145 24v4h-2v-4a11.066 11.066 0 00-.96-4.523l-1.563-3.518a17.3 17.3 0 01-1.058-3.18l-1.95.442c.135.6.3 1.192.5 1.779H25v2h13.751l1.461 3.29A9.065 9.065 0 0141 24v4H19v-4a13.056 13.056 0 011.132-5.335z"/></symbol><symbol id="icon-pizza" viewBox="0 0 512 512"><path d="M328.848 167.996c0 4.844-3.926 8.77-8.77 8.77s-8.77-3.926-8.77-8.77 3.926-8.77 8.77-8.77 8.77 3.926 8.77 8.77zm45.75-23.219a8.769 8.769 0 01-17.535 0 8.769 8.769 0 018.769-8.77c4.84 0 8.766 3.927 8.766 8.77zm-11.504 22.063a8.769 8.769 0 01-8.77 8.77c-4.84 0-8.765-3.926-8.765-8.77s3.925-8.77 8.765-8.77a8.769 8.769 0 018.77 8.77zM133.773 126.2c0 4.84-3.925 8.765-8.77 8.765a8.767 8.767 0 01-8.765-8.766 8.769 8.769 0 0117.535 0zm51.137-11.61c0 4.84-3.926 8.765-8.77 8.765s-8.769-3.925-8.769-8.765c0-4.844 3.926-8.77 8.77-8.77s8.77 3.926 8.77 8.77zm-28.262-8.77a8.769 8.769 0 01-8.77 8.77c-4.839 0-8.765-3.926-8.765-8.77s3.926-8.77 8.766-8.77a8.769 8.769 0 018.77 8.77zm-42.601 161.23c0 4.84-3.926 8.766-8.77 8.766s-8.77-3.925-8.77-8.765a8.77 8.77 0 0117.54 0zm28.493-20.378a8.769 8.769 0 01-17.535 0 8.769 8.769 0 018.768-8.77c4.84 0 8.766 3.926 8.766 8.77zm14.108 17.535a8.769 8.769 0 01-8.77 8.77c-4.839 0-8.765-3.926-8.765-8.77a8.767 8.767 0 018.766-8.766c4.844 0 8.77 3.926 8.77 8.766zM229.59 79.965c1.648-.38 3.308-.082 4.648.762.692.43 1.91 1.41 2.27 3.136 2.535 12.278 14.918 20.114 27.648 17.547 1.656-.367 3.305-.082 4.645.762.695.43 1.914 1.41 2.273 3.137 1.242 6.043 4.867 11.187 10.196 14.496a23.61 23.61 0 0012.476 3.543c1.649 0 3.316-.168 4.965-.512 4.742-.98 7.793-5.629 6.805-10.371-.985-4.735-5.614-7.762-10.364-6.805-1.668.352-3.297.07-4.648-.762-.692-.43-1.91-1.41-2.262-3.136-1.254-6.043-4.875-11.2-10.207-14.496-5.18-3.227-11.379-4.305-17.437-3.043-3.246.691-6.352-1.086-6.93-3.91-1.254-6.04-4.875-11.196-10.207-14.493-5.18-3.218-11.395-4.308-17.445-3.043-4.746.98-7.797 5.63-6.805 10.371.988 4.739 5.594 7.782 10.379 6.817zm34.687 124.113c-4.84.106-8.68 4.121-8.582 8.95.024 1.015-.562 1.683-.984 1.69-10.223.231-18.352 9.016-18.121 19.598.023 1.016-.563 1.684-.985 1.692-5.066.113-9.742 2.289-13.187 6.113-3.297 3.68-5.05 8.469-4.938 13.492.106 4.77 4.008 8.578 8.762 8.578h.2c4.84-.113 8.68-4.12 8.566-8.96-.008-.649.336-1.668.984-1.676 10.223-.227 18.36-9.024 18.133-19.606-.027-1.015.563-1.676.973-1.683 10.226-.23 18.363-9.024 18.132-19.606-.105-4.84-3.875-8.32-8.953-8.582zm-62.817-32.004c-1.331 3.024-4.565 4.531-7.198 3.375-5.645-2.48-11.942-2.527-17.719-.097-5.621 2.359-10.094 6.78-12.59 12.46-1.95 4.43.059 9.61 4.496 11.547a8.65 8.65 0 003.528.746 8.775 8.775 0 008.027-5.242c.687-1.543 1.863-2.734 3.316-3.351.754-.313 2.262-.727 3.875-.024 11.489 5.075 25.086-.484 30.32-12.355.684-1.543 1.86-2.735 3.317-3.352.754-.312 2.258-.726 3.875-.023 5.645 2.48 11.941 2.523 17.719.094 5.62-2.36 10.094-6.778 12.59-12.457 1.949-4.43-.059-9.61-4.496-11.551-4.438-1.961-9.602.054-11.555 4.5-.688 1.543-1.863 2.734-3.317 3.347-.746.317-2.253.72-3.875.028-5.664-2.48-11.949-2.524-17.73-.098-5.629 2.36-10.09 6.777-12.582 12.453zm0 0"/><path d="M504.262 141.875c-.063-.164-.192-.27-.262-.438-2.418-9.695-5.516-18.796-9.285-27.277-.121-.41-.367-.781-.555-1.183-20.078-44.07-57.605-72.075-102.89-89.11-.282-.14-.485-.37-.79-.484-.21-.07-.421-.035-.632-.086-19.332-7.149-40.036-12.336-61.332-15.985-.055-.019-.082-.062-.133-.082a8.612 8.612 0 00-3.457-.472C281.164-.36 235.133-1.098 193.238 1.086c-.113 0-.203-.063-.316-.063-.184 0-.34.098-.535.106-37.578 1.988-71.766 6.27-97.719 10.348-22.465 3.543-39.336 21.64-41.586 44.156v.027c-.043.457-.176.867-.21 1.313L39.698 225.289C23.73 235.465-9.953 263.051 2.836 308.262c4.516 15.941 11.89 25.312 21.93 27.828 1.836.465 4.824 1.988 4.382 4.777-3.382 21.465-9.132 61.07-9.562 85.168-.215 11.598 3.602 21.332 11.027 28.117 10.524 9.63 25.325 11.067 33.16 11.067 2.754 0 4.66-.184 5.211-.235 3.094-.203 30.461-2.554 39.489-21.457 5.5-11.504 2.605-25.53-8.524-41.66l143.762-58.281c.027.02.062.02.09.035 1.71.906 3.543 1.613 5.433 2.191.301.098.57.247.88.336a34.957 34.957 0 006.898 1.176c2 .121 3.965.121 5.894.035.43-.02.86-.078 1.297-.105 1.64-.113 3.246-.3 4.813-.57.394-.07.789-.141 1.183-.22a43.917 43.917 0 005.38-1.394c.112-.035.233-.07.347-.105 6.41-2.176 11.96-5.727 16.117-10.582 1.578-1.84 2.883-3.903 4.078-6.059a.917.917 0 00.086-.176c1.16-2.12 2.125-4.41 2.902-6.84.028-.078.063-.132.09-.21l164.656-66.77c1.098-.367 27.153-9.418 40.5-36.808 10.227-20.965 10.192-46.403-.093-75.645zm-21.973 17.93a289.441 289.441 0 00-9.95-19.727l10.38-8.883a151.877 151.877 0 016.12 21.88c1.544 7.702.212 15.429-3.296 21.952.113-4.797-.809-9.879-3.254-15.222zm-6.883-45.418l-12.258 10.488c-6.55-9.918-14.046-19.414-22.789-28.285l10.68-15.504c9.61 9.68 17.844 20.719 24.367 33.3zM386.777 59.34l5.868-16.184c16.597 6.934 31.851 15.555 45.207 26.145L427.32 84.594c-11.468-9.469-24.875-17.957-40.543-25.254zM326.18 40.2l5.14-14.74c15.512 2.884 30.598 6.65 44.918 11.497l-5.636 15.563c-13.23-4.946-28.016-9.067-44.422-12.32zm-63.102-7.348V18.008c16.965.738 33.984 2.191 50.68 4.57l-5.098 14.625c-14.043-2.078-29.18-3.562-45.582-4.351zm-28.262-15.457c3.559 0 7.137.027 10.727.085v14.793c-13.77-.246-28.402-.007-43.844.676V18.191c10.848-.48 21.895-.796 33.117-.796zM131.555 38.754V24.066a941.036 941.036 0 0152.61-4.93V33.88c-16.556 1.078-34.118 2.719-52.61 4.875zm-34.153-9.941a995.926 995.926 0 0116.618-2.458v14.52c-13.012 1.71-26.657 3.762-40.641 6.016 4.418-9.442 13.21-16.38 24.023-18.078zm-4.734 407.12c-3.918 8.25-19.668 11.172-25.207 11.575-4.2.48-17.836.27-25.016-6.297-3.699-3.395-5.453-8.25-5.324-14.863.414-23.036 6.035-61.727 9.356-82.743 1.773-11.234-5.559-21.543-17.43-24.527-3.317-.832-6.797-6.664-9.32-15.598-10.27-36.28 19.464-57.835 32.722-65.418l4.024-2.308 13.343-170.54c46.36-7.663 87.079-12.355 122.844-14.476.094 0 .176.055.27.055.16 0 .289-.082.449-.09 47.328-2.77 86.031-1.086 117.941 3.965.164.07.27.203.446.262.957.332 1.93.492 2.882.492.282 0 .543-.098.825-.133 21.406 3.648 39.59 8.875 55.285 15.266.664.488 1.324 1.007 2.148 1.308.586.211 1.184.227 1.781.305 19.313 8.34 34.606 18.543 47.04 29.934a8.766 8.766 0 002.421 2.515c.2.14.418.188.63.309 19.449 18.789 31.652 40.5 41.562 62.168 7.742 16.914-14.598 29.539-17.149 30.906l-166.195 69.102-1.078 4.27c-1.164 4.648-1.2 9.663-.113 14.503 2.34 10.363 2.86 19.078 1.66 25.926l-.203.992c-1.551 7.426-5.262 11.773-9.77 14.238-4.426 2.317-9.406 2.809-12.844 2.817-.824-.012-1.648 0-2.449-.063a16.095 16.095 0 01-4.594-.984c-1.27-.48-2.437-1.114-3.48-1.946l-.613-.492c-.5-.453-1-.902-1.446-1.453-5.093-6.27-6.136-18.351-4.945-26.91l2.106-15.188-142.633 59.31c-16.336 6.347-25.957 14.968-29.403 26.355-3.656 12.109.239 26.093 11.926 42.73 5.262 7.477 10.82 17.824 7.551 24.727zm-2.676-62.367c1.754-5.804 8.137-10.882 19.16-15.16l116.215-48.32c.453 6.187 1.84 13.387 5.215 19.894l-139.21 56.438c-1.895-5.031-2.438-9.363-1.38-12.852zm398.723-163.992c-10.012 20.797-30.293 28.051-30.942 28.297l-156.242 63.34c-.226-5.91-1.035-12.258-2.605-19.176a14.399 14.399 0 01-.34-2.402l177.766-73.906c6.753-2.809 12.468-7.114 17.195-12.243-.887 5.727-2.438 11.13-4.832 16.09zm0 0"/><path d="M123.164 300.344c37.07 0 67.223-24.008 67.223-53.524 0-17.941-8.785-25.933-16.164-29.488-8.207-3.945-17.434-3.945-24.754-3.945-13.793 0-84.762 17.738-84.762 50.972 0 35.985 27.09 35.985 58.457 35.985zm26.375-69.418h.106c5.539 0 12.394.015 16.972 2.219 1.867.902 6.235 2.996 6.235 13.687 0 19.508-22.754 35.984-49.688 35.984-40.922 0-40.922-3.902-40.922-18.449 0-15.61 53.766-33.441 67.297-33.441zm-6.043-72.856c37.07 0 67.227-24.007 67.227-53.52 0-17.94-8.786-25.937-16.168-29.487-8.172-3.93-17.64-3.946-24.657-3.946h-.097c-13.793 0-84.762 17.738-84.762 50.969 0 35.984 27.094 35.984 58.457 35.984zm26.375-69.418h.106c5.543 0 12.398.02 16.976 2.22 1.867.901 6.23 3 6.23 13.687 0 19.507-22.75 35.984-49.687 35.984-40.922 0-40.922-3.902-40.922-18.45 0-15.605 53.77-33.44 67.297-33.44zm110.742 76.922c0 35.977 27.086 35.977 58.457 35.977 37.07 0 67.227-24 67.227-53.512 0-17.95-8.797-25.945-16.168-29.488-8.18-3.938-17.649-3.953-24.656-3.953h-.098c-13.8-.008-84.762 17.738-84.762 50.976zm84.813-33.449h.105c5.543 0 12.406.02 16.992 2.219 1.868.902 6.235 3.008 6.235 13.695 0 19.5-22.754 35.977-49.688 35.977-40.922 0-40.922-3.903-40.922-18.442 0-15.613 53.766-33.449 67.278-33.449zm0 0"/></symbol><symbol id="icon-plastic" viewBox="0 0 512 512"><path d="M436.59 178.316L416 149.441V112a8 8 0 00-8-8h-48a8 8 0 00-8 8v37.441l-20.582 28.864a104.056 104.056 0 00-6.218 9.795l13.969 7.8a88.008 88.008 0 015.266-8.3l22.078-30.96A8 8 0 00368 152v-32h32v32a8 8 0 001.488 4.645l22.1 30.992A86.423 86.423 0 01434.4 208H376v16h62.6a89.347 89.347 0 011.4 14.8v1.2h-64v16h64v16h-64v16h60.893l-1.924 5.871a56.835 56.835 0 00-.012 36.223l2.895 8.832A41.339 41.339 0 01440 352h-64v16h64v16h-64v16h64v16h-64v16h64v32a16.016 16.016 0 01-16 16h-17.359a8.022 8.022 0 01-5.7-2.375 24.4 24.4 0 00-33.876 0l11.313 11.313a8.02 8.02 0 0111.25 0A23.917 23.917 0 00406.641 496H424a32.036 32.036 0 0032-32V352a57.251 57.251 0 00-2.957-18.094l-2.895-8.832a40.861 40.861 0 01.012-26.183l2.9-8.844a71.885 71.885 0 002.211-8.844A61.563 61.563 0 00456 272v-33.2a106.361 106.361 0 00-2.945-24.692 102.367 102.367 0 00-16.465-35.792zM56 192v242a62.069 62.069 0 0062 62 61.448 61.448 0 0037.215-12.41 21.327 21.327 0 0125.578 0 61.636 61.636 0 0034.91 12.367l.594-15.992a45.625 45.625 0 01-25.879-9.16 37.4 37.4 0 00-44.828 0A45.545 45.545 0 01118 480a46.054 46.054 0 01-46-46v-42h144v-16H72V216h176v-16H72v-8a95.776 95.776 0 0166.465-91.352A7.993 7.993 0 00144 93.039V72h48v21.039a7.993 7.993 0 005.535 7.609 95.631 95.631 0 0166.184 83.961l15.953-1.218A111.517 111.517 0 00208 87.379V72h16V56h-16V24a8 8 0 00-8-8h-64a8 8 0 00-8 8v32h-16v16h16v15.379A111.7 111.7 0 0056 192zm88-160h48v24h-48z"/><path d="M123.57 125.461l8.86 13.32a64.537 64.537 0 0115.871-7.648l-4.922-15.227a80.5 80.5 0 00-19.809 9.555zm-19.179 59.418a64.1 64.1 0 0117.386-37.188L110.238 136.6a80.24 80.24 0 00-21.754 46.516zM88 232h16v16H88zm0 32h16v72H88zm176 16h16v24h-16z"/><path d="M296 192c-17.945 0-32 10.543-32 24v27.062l-18.7 9.383a23.9 23.9 0 00-13.3 21.477V312a8 8 0 00.844 3.578L239.055 328l-6.211 12.422A8 8 0 00232 344v16a8 8 0 00.844 3.578L239.055 376l-6.211 12.422A8 8 0 00232 392v16a8 8 0 00.844 3.578L239.055 424l-6.211 12.422A8 8 0 00232 440v32a24.037 24.037 0 0024 24h80a25.431 25.431 0 005.438-.613A23.965 23.965 0 00360 472v-32a8 8 0 00-.844-3.578L352.945 424l6.211-12.422A8 8 0 00360 408v-16a8 8 0 00-.844-3.578L352.945 376l6.211-12.422A8 8 0 00360 360v-16a8 8 0 00-.844-3.578L352.945 328l6.211-12.422A8 8 0 00360 312v-38.078a23.884 23.884 0 00-13.293-21.469L328 243.062V216c0-13.457-14.055-24-32-24zm0 16c9.766 0 16 4.738 16 8s-6.234 8-16 8-16-4.738-16-8 6.234-8 16-8zm43.543 58.758a7.977 7.977 0 014.457 7.164v36.191L339.055 320H272v16h67.055l4.945 9.887v12.226L339.055 368H272v16h67.055l4.945 9.887v12.226L339.055 416H272v16h67.055l4.945 9.887V472a8.085 8.085 0 01-6.062 7.777A9.369 9.369 0 01336 480h-80a8.024 8.024 0 01-6.367-3.184A7.866 7.866 0 01248 472v-30.113l7.156-14.309a8.008 8.008 0 000-7.156L248 406.113v-12.226l7.156-14.309a8.008 8.008 0 000-7.156L248 358.113v-12.226l7.156-14.309a8.008 8.008 0 000-7.156L248 310.113v-36.191a7.991 7.991 0 014.465-7.172l23.121-11.6A7.991 7.991 0 00280 248v-11.236a41.173 41.173 0 0032 0V248a7.991 7.991 0 004.414 7.148z"/></symbol><symbol id="icon-salad" viewBox="0 0 512.001 512.001"><path d="M503.45 324.28H8.55a8.53 8.53 0 00-8.533 8.533c0 98.801 80.379 179.188 179.188 179.188h153.59c98.801 0 179.188-80.387 179.188-179.188a8.525 8.525 0 00-8.533-8.533zM332.795 494.935h-153.59c-86.531 0-157.447-68.143-161.901-153.59h477.391c-4.453 85.447-75.369 153.59-161.9 153.59zm102.428-375.39c0-.623-.009-1.246-.068-2.193-1.314-14.147-11.041-25.769-23.883-30.129l9.659-9.659c16.75-16.408 18.431-42.655 3.771-61.188-15.7-19.079-43.995-21.793-63.066-6.101a45.088 45.088 0 00-3.183 2.893l-10.495 10.649c-4.403-12.774-16.05-22.433-30.402-23.764-18.9-1.032-34.899 13.473-35.914 32.262a34.16 34.16 0 00-.043 1.86v13.081a33.925 33.925 0 00-19.224-4.523c-18.243 1.698-32.279 17.373-31.972 35.547v11.605c-5.12-2.961-10.956-4.548-17.031-4.557-.614 0-1.237.017-2.184.068-18.252 1.698-32.288 17.373-31.981 35.548v126.541a8.53 8.53 0 008.533 8.533h145.057c18.823 0 34.131-15.308 34.122-34.114a33.87 33.87 0 00-4.582-17.065h11.528c18.328.503 34.003-13.738 35.718-32.314a33.92 33.92 0 00-4.667-19.096c7.662-.853 14.753-4.241 20.282-9.753 6.449-6.434 10.016-15.001 10.025-24.131zm-22.075 12.048a16.982 16.982 0 01-12.065 4.975h-25.624c-4.719 0-8.533 3.823-8.533 8.533s3.814 8.533 8.533 8.533l.939.026c9.403.503 16.639 8.558 16.161 17.62-.87 9.403-8.848 16.682-18.55 16.485h-41.213c-4.719 0-8.533 3.823-8.533 8.533s3.814 8.533 8.533 8.533c9.412 0 17.066 7.654 17.066 17.066s-7.654 17.066-17.066 17.066H196.271V120.799c-.162-9.446 7.091-17.526 16.161-18.38l.93-.026c9.395.008 17.031 7.654 17.04 17.04v.06c0 4.71 3.814 8.533 8.524 8.533h.009c4.71 0 8.524-3.814 8.533-8.524V78.135c-.162-9.446 7.091-17.526 16.161-18.38l.922-.026c9.403.017 17.04 7.662 17.049 17.057v.051c0 4.71 3.814 8.533 8.524 8.533h.009c4.71 0 8.524-3.814 8.533-8.524V34.174l.026-.947c.495-9.395 8.362-16.63 17.612-16.161 9.42.879 16.664 8.959 16.485 18.567v7.082a8.533 8.533 0 005.299 7.893 8.516 8.516 0 009.309-1.911l23.149-23.491a28.91 28.91 0 011.954-1.766c11.809-9.71 29.31-8.021 38.935 3.652 9.113 11.536 8.063 27.987-2.5 38.338l-22.441 22.441a8.534 8.534 0 00-1.852 9.301 8.537 8.537 0 007.884 5.265h7.534c9.318 0 17.236 7.185 18.072 16.161l.026.939c-.01 4.556-1.784 8.839-5.01 12.056z"/><path d="M130.52 292.626L369.433 53.713 381.5 65.78 142.587 304.693z"/><path d="M315.713 68.348h17.066v42.664h-17.066zm-51.197 42.664h17.066v51.197h-17.066zm-51.197 42.578h17.066v59.729h-17.066z"/><path d="M324.245 102.479h42.664v17.065h-42.664zm-51.196 51.111h51.197v17.065h-51.197zm-51.197 51.197h59.729v17.066h-59.729zM159.281 39.473c-.008-.017-.026-.034-.034-.051-12.04-18.03-36.512-22.928-54.533-10.888-.563.367-1.118.759-1.749 1.229l-3.072 2.338-2.952-2.125C81.326 15.411 56.777 16 41.913 31.427c-7.278 7.543-11.186 17.475-10.99 27.962.196 10.487 4.454 20.265 11.989 27.535a39.158 39.158 0 007.261 5.529l7.185 5.615v4.369c0 23.525 19.139 42.664 42.664 42.664s42.664-19.148 42.655-42.672V98.06l7.552-5.896c16.339-12.399 20.307-35.548 9.052-52.691zm-19.463 39.174l-10.922 8.533a8.537 8.537 0 00-3.277 6.724v8.533c0 14.113-11.485 25.598-25.598 25.598s-25.598-11.485-25.598-25.598v-8.533a8.51 8.51 0 00-3.277-6.724l-10.922-8.533a8.4 8.4 0 00-1.032-.691 21.969 21.969 0 01-4.42-3.311 22.053 22.053 0 01-6.784-15.564c-.111-5.922 2.099-11.536 6.212-15.803 4.343-4.505 10.154-6.775 15.973-6.775 5.546 0 11.101 2.056 15.402 6.212.29.273.597.538.93.776l8.533 6.144a8.526 8.526 0 0010.146-.128l8.994-6.766c4.949-3.311 10.879-4.471 16.716-3.319a22.12 22.12 0 0114.147 9.446c6.331 9.676 4.078 22.714-5.223 29.779zm47.903-70.114h17.066v17.065h-17.066zm51.197 273.049h17.065v17.065h-17.065zM460.787 51.24v17.066c9.412 0 17.066 7.654 17.066 17.065s-7.654 17.066-17.066 17.066v17.065c18.823 0 34.131-15.308 34.131-34.131S479.61 51.24 460.787 51.24zM17.066 128.077h17.065v17.066H17.066zM.017 93.946h17.065v17.066H.017zm332.778 179.137c-18.823 0-34.131 15.308-34.131 34.131h17.066c0-9.412 7.654-17.066 17.065-17.066 9.412 0 17.066 7.654 17.066 17.066h17.065c0-18.823-15.308-34.131-34.131-34.131zm-230.384-76.795h-1.075C97.53 181.586 84.159 170.69 68.28 170.69s-29.259 10.896-33.056 25.598h-1.075c-18.823 0-34.131 15.308-34.131 34.131s15.308 34.131 34.131 34.131h68.262c18.823 0 34.131-15.308 34.131-34.131s-15.308-34.131-34.131-34.131zm0 51.205H34.148c-9.412 0-17.066-7.654-17.066-17.065 0-9.412 7.654-17.066 17.066-17.066h8.533a8.536 8.536 0 008.533-8.533c0-9.412 7.654-17.065 17.066-17.065s17.066 7.654 17.066 17.065a8.536 8.536 0 008.533 8.533h8.533c9.412 0 17.066 7.654 17.066 17.066-.002 9.412-7.656 17.065-17.067 17.065z"/><path d="M85.345 247.485H51.214a8.536 8.536 0 00-8.533 8.533v34.131a8.53 8.53 0 008.533 8.533h34.131a8.53 8.53 0 008.533-8.533v-34.131a8.536 8.536 0 00-8.533-8.533zm-8.533 34.131H59.747v-17.065h17.066v17.065zm375.442-59.729c-14.113 0-25.598 11.485-25.598 25.598s11.485 25.598 25.598 25.598 25.598-11.485 25.598-25.598-11.485-25.598-25.598-25.598zm0 34.139c-4.71 0-8.533-3.831-8.533-8.533s3.823-8.533 8.533-8.533 8.533 3.823 8.533 8.533a8.536 8.536 0 01-8.533 8.533z"/><path d="M452.254 187.756c-32.928 0-59.729 26.793-59.729 59.729s26.801 59.729 59.729 59.729 59.729-26.793 59.729-59.729-26.801-59.729-59.729-59.729zm0 102.401c-23.525 0-42.664-19.147-42.664-42.664 0-23.525 19.139-42.664 42.664-42.664 23.525 0 42.664 19.139 42.664 42.664 0 23.525-19.139 42.664-42.664 42.664z"/></symbol><symbol id="icon-select" viewBox="0 0 16 16"><path fill="none" stroke-linecap="round" stroke-linejoin="round" stroke-miterlimit="10" d="M15.5 4.5L8 12 .5 4.5" stroke="currentColor"/></symbol><symbol id="icon-star" viewBox="0 0 49.94 49.94"><path d="M48.856 22.731a3.56 3.56 0 00.906-3.671 3.56 3.56 0 00-2.892-2.438l-12.092-1.757a1.58 1.58 0 01-1.19-.865L28.182 3.043a3.56 3.56 0 00-3.212-1.996 3.56 3.56 0 00-3.211 1.996L16.352 14c-.23.467-.676.79-1.191.865L3.069 16.623A3.557 3.557 0 00.178 19.06a3.56 3.56 0 00.906 3.671l8.749 8.528c.373.364.544.888.456 1.4L8.224 44.702a3.559 3.559 0 001.424 3.502 3.552 3.552 0 003.772.273l10.814-5.686a1.583 1.583 0 011.472 0l10.815 5.686a3.568 3.568 0 003.772-.273 3.559 3.559 0 001.424-3.502L39.651 32.66a1.582 1.582 0 01.456-1.4l8.749-8.529zM37.681 32.998l2.065 12.042a1.553 1.553 0 01-.629 1.547 1.558 1.558 0 01-1.665.121l-10.815-5.687a3.588 3.588 0 00-3.334.001L12.49 46.708a1.56 1.56 0 01-1.666-.121 1.554 1.554 0 01-.629-1.547l2.065-12.042a3.581 3.581 0 00-1.03-3.17l-8.75-8.529a1.55 1.55 0 01-.4-1.621c.19-.586.667-.988 1.276-1.077l12.091-1.757a3.576 3.576 0 002.697-1.959l5.407-10.957a1.551 1.551 0 011.418-.881c.616 0 1.146.329 1.419.881l5.407 10.957a3.575 3.575 0 002.696 1.959l12.092 1.757a1.552 1.552 0 011.276 1.077c.19.585.041 1.191-.4 1.621l-8.749 8.528a3.58 3.58 0 00-1.029 3.171z"/></symbol><symbol id="icon-sushi-roll" viewBox="0 0 512 512"><path d="M501.363 329.32l-52.254 8.192 47.977-23.032a9.2 9.2 0 004.312-12.277c-2.187-4.57-7.683-6.539-12.273-4.312l-103.164 49.52-319.906 50.155c-5.024.793-8.446 5.504-7.664 10.524a9.197 9.197 0 009.074 7.777 9.35 9.35 0 001.433-.113l259.41-40.668-236.425 113.48c-4.582 2.2-6.516 7.692-4.317 12.274a9.203 9.203 0 008.301 5.219 9.024 9.024 0 003.973-.91l291.613-139.961 112.77-17.676c5.015-.79 8.449-5.5 7.668-10.524-.801-5.02-5.395-8.441-10.528-7.668zm-148.976-69.625v-37.53c0-.013-.012-.02-.012-.02v-37.77s-.008-.02 0-.027V62.598s.012-.067.012-.102c0 0-.012-.066-.012-.101v-.145c-.008-.766-.258-1.465-.32-2.21-.157-1.747-.278-3.497-.754-5.173-.149-.523-.461-1.004-.645-1.515-.644-1.872-1.344-3.72-2.375-5.485-.117-.203-.312-.398-.43-.597C330.224 18.422 262.899 2.402 192.556.25A531.756 531.756 0 00176.187 0c-5.457 0-10.921.082-16.37.25C78.741 2.727 1.663 23.629.147 61.39c-.011.325-.128.618-.14.95v.066a.107.107 0 01-.008.051c0 .066.012.102.012.102v197.218c.383 40.864 88.918 62.254 176.183 62.254 87.262 0 175.817-21.379 176.192-62.336zm-198.38-153.613c-42.976-11.289-50.429-30.164-50.503-30.39-.426-1.254-.625-2.872 1.074-5.376 6.055-8.918 29.297-19.386 66.04-21.308.577-.04 1.148-.067 1.73-.094-13.711 1.961-24.192 6.836-28.782 13.61-2.855 4.187-3.562 9.035-2 13.636 5.622 16.602 34.856 22.664 59.645 21.45 26.121-1.372 46.289-8.954 53.957-20.255 3.504-5.18 4.395-11.113 2.492-16.734-7.555-22.332-50.02-32.012-88.02-29.996-38.613 2.031-69.382 13.273-80.296 29.36-4.621 6.808-5.754 14.269-3.367 21.328.476 1.582 3.515 9.93 14.675 19.453C48.61 92.133 18.523 75.57 18.422 62.57v-.136c0-.028.016-.055.016-.055.34-18.406 60.406-43.973 157.773-43.973 6.094 0 12.035.098 17.832.293 80.973 2.688 132.352 23.344 139.168 40.098.012.031.039.058.047.086.394.984.535 1.941.605 2.898.02.219.13.45.13.66v.141c-.145 18.402-60.138 44.027-157.782 44.027-7.672-.02-15.016-.234-22.203-.527zm30.735-57.25c30.942.938 52.988 10.27 55.508 17.602-.68 3.082-13.57 11.398-40.008 12.789-21.601 1.132-35.644-4.223-39.949-7.582 2.934-1.82 9.91-4.547 21.34-5.145a9.195 9.195 0 008.703-9.68 9.206 9.206 0 00-5.594-7.984zM18.41 259.695V91.801c26.38 18.945 77.899 29.941 132.563 32.527.074.02.129.04.195.055a9.007 9.007 0 002.262.277c.36 0 .683-.129 1.03-.176 7.224.293 14.478.496 21.735.496 63.489 0 127.364-11.343 157.782-33.187v61.336c-.903 15.668-29.95 25.129-40.91 28.687-4.829 1.575-7.481 6.762-5.907 11.602a9.207 9.207 0 008.75 6.352c.938 0 1.906-.149 2.844-.454 8.547-2.777 23.324-7.617 35.223-16.046v.359c-1.247 22.965-51.997 32.8-71.13 36.5l-1.44.277c-4.989.965-8.247 5.797-7.282 10.781a9.204 9.204 0 009.02 7.454c.578 0 1.168-.055 1.757-.172l1.434-.278c16.582-3.203 47.7-9.3 67.629-23.71v6.964c-1.074 19.727-34.477 33.512-99.317 40.965l-2.246.258c-5.05.578-8.668 5.152-8.078 10.195.543 4.692 4.52 8.14 9.13 8.14.355 0 .718-.015 1.073-.062l2.22-.25c24.144-2.78 71.198-8.273 97.218-27.511v6.402c-.172 18.387-60.277 44.031-157.781 44.031S18.586 277.988 18.41 259.695zm0 0"/></symbol><symbol id="icon-sushi" viewBox="0 0 511.998 511.998"><path d="M76.552 303.132h-.287c-5.523 0-10 4.477-10 10s4.477 10 10 10h.287c5.523 0 10-4.477 10-10s-4.477-10-10-10zm21.416 107.983h-.287c-5.523 0-10 4.477-10 10s4.477 10 10 10h.287c5.523 0 10-4.477 10-10s-4.477-10-10-10zm184.25-4.5h-.287c-5.523 0-10 4.477-10 10s4.477 10 10 10h.287c5.523 0 10-4.477 10-10s-4.477-10-10-10zm-82.5-14.749h-.287c-5.523 0-10 4.477-10 10s4.477 10 10 10h.287c5.523 0 10-4.477 10-10s-4.477-10-10-10z"/><path d="M489.916 129.486c-.645-.71-1.312-1.445-1.96-2.17 7.46-9.368 16.178-23.482 19.282-28.612a10 10 0 00-5.34-14.647c-5.308-1.803-11.544-2.716-18.534-2.716-15.367 0-31.999 4.331-43.128 9.491-19.862-19.449-54.253-31.567-91.801-38.227a9.964 9.964 0 00-2.235-.388c-25.311-4.33-51.947-6.214-76.46-6.214-.423 0-.85.003-1.275.004a10.527 10.527 0 00-.665.002c-65.665.259-146.143 13.716-177.347 50.834-10.403 12.374-14.514 26.875-11.887 41.936a43.907 43.907 0 001.409 5.727v.001c2.057 6.49 5.604 12.167 10.602 17.02-2.042 7.538-3.147 15.51-3.147 23.051 0 24.471 10.433 47.239 27.919 63.209-43.161 7.165-82.868 21.194-102.69 44.773C2.255 304.935-1.855 319.437.772 334.497a43.78 43.78 0 001.41 5.731c2.057 6.489 5.604 12.165 10.601 17.018-2.041 7.538-3.147 15.51-3.147 23.051 0 47.254 38.444 85.698 85.698 85.698h189.273c47.254 0 85.698-38.444 85.698-85.698 0-3.673-.241-7.393-.688-11.072 14.803 10.222 31.361 14.781 52.449 14.781.647 0 1.297-.004 1.954-.013a10 10 0 009.781-8.678c3.048-22.871-11.832-39.264-21.679-50.111-.645-.711-1.312-1.445-1.961-2.17 7.46-9.368 16.177-23.481 19.282-28.611a10.003 10.003 0 00-5.339-14.647c-5.308-1.803-11.544-2.717-18.535-2.717-15.367 0-31.999 4.331-43.128 9.492-6.265-6.134-13.976-11.539-22.774-16.273h22.734c47.253 0 85.697-38.444 85.697-85.698a92.11 92.11 0 00-.688-11.073c14.803 10.223 31.361 14.783 52.449 14.783.647 0 1.297-.004 1.954-.013a10 10 0 009.781-8.678c3.048-22.872-11.832-39.265-21.678-50.113zM337.645 71.033c6.65 25.416 12.745 56.04-5.118 90.86-10.5-.575-20.757-1.353-30.337-2.082-7.507-.571-14.449-1.099-20.653-1.46 6.293-25.429 2.648-47.574-.631-67.442-1.439-8.723-2.816-17.097-3.089-24.831 20.978.343 41.159 2.025 59.828 4.955zm-136.148-.014c17.516-2.706 36.491-4.384 56.305-4.867.26 9.118 1.781 18.376 3.372 28.012 3.291 19.942 6.676 40.509-.271 63.847-7.786.295-17.137 1.007-27.577 1.802-6.988.532-14.334 1.091-21.871 1.578-18.356-35.008-16.027-65.052-9.958-90.372zM100.91 142.408c5.028-5.883 16.372-12.327 27.087-13.424 5.494-.563 9.492-5.473 8.929-10.967-.563-5.495-5.476-9.496-10.967-8.929-8.666.888-17.593 4.014-25.329 8.449 1.278-2.666 2.982-5.269 5.13-7.825 12.555-14.933 39.446-27.065 74.377-34.726-4.995 25.153-5.649 54.213 9.576 87.508-5.095.172-10.206.272-15.286.272-40.774 0-65.42-6.845-73.517-20.358zM23.116 338.126c5.028-5.883 16.373-12.326 27.087-13.424 5.494-.563 9.492-5.473 8.929-10.967s-5.476-9.498-10.967-8.929c-8.666.888-17.592 4.014-25.327 8.449 1.277-2.666 2.981-5.269 5.13-7.825 12.554-14.933 39.443-27.066 74.375-34.726-4.996 25.153-5.649 54.212 9.576 87.509-5.095.172-10.206.272-15.286.272-40.774 0-65.42-6.845-73.517-20.359zm261.491 107.869H95.334c-36.226 0-65.698-29.472-65.698-65.698 0-3.728.37-7.682 1.063-11.598a84.576 84.576 0 005.951 2.284c14.904 5.048 34.525 7.502 59.984 7.502 20.874 0 41.881-1.6 60.416-3.012 13.313-1.014 24.81-1.89 32.921-1.89l.343.002.039.002.032-.001c8.083.028 19.408.889 32.495 1.884 18.527 1.41 39.525 3.008 60.388 3.008 28.897 0 50.537-3.158 66.076-9.781.624 3.832.963 7.778.963 11.599-.002 36.227-29.474 65.699-65.7 65.699zM123.704 266.737a405.787 405.787 0 0120.876-2.663c.103-.013.209-.016.313-.032 11.301-1.143 23.052-1.879 35.114-2.173.26 9.118 1.781 18.376 3.372 28.013 3.291 19.942 6.676 40.509-.271 63.847-7.786.296-17.137 1.007-27.577 1.802-6.986.532-14.332 1.091-21.869 1.578-18.358-35.01-16.028-65.054-9.958-90.372zm79.408 19.89c-1.439-8.723-2.816-17.097-3.089-24.832 20.979.342 41.16 2.025 59.828 4.955 6.649 25.416 12.744 56.04-5.119 90.861-10.501-.575-20.756-1.353-30.336-2.082-7.507-.571-14.448-1.099-20.653-1.46 6.293-25.429 2.648-47.574-.631-67.442zm149.424 18.724a10 10 0 0013.616 1.935c5.71-4.052 22.262-9.858 37.936-10.21-5.589 8.447-10.955 15.818-13.195 17.61a10 10 0 00-2.586 12.499c1.97 3.71 5.23 7.302 9.006 11.462 6.355 7 13.908 15.323 16.19 25.036-18.489-1.476-31.945-8.072-44.996-21.693a10.001 10.001 0 00-7.221-3.082h-.063a9.999 9.999 0 00-7.244 3.173c-10.167 10.881-33.958 16.399-70.713 16.399a406.9 406.9 0 01-6.804-.06c14.427-33.47 10.757-63.253 5.031-87.558 3.255.736 6.457 1.506 9.579 2.327 29.695 7.808 50.949 18.93 61.464 32.162zm9.866-55.074h-81.614a352.555 352.555 0 00-10.134-1.951 9.932 9.932 0 00-2.265-.394c-25.307-4.328-51.937-6.211-76.445-6.211-.425 0-.854.003-1.28.004a10.566 10.566 0 00-.642.002 497.148 497.148 0 00-44.947 2.211c-22.952-10.916-37.646-33.948-37.646-59.36 0-3.728.371-7.682 1.063-11.597a84.766 84.766 0 005.951 2.283c14.903 5.048 34.524 7.502 59.984 7.502 20.874 0 41.882-1.6 60.417-3.012 13.313-1.014 24.811-1.89 32.921-1.89l.342.002.039.002.033-.001c8.083.028 19.407.889 32.494 1.884 18.527 1.41 39.525 3.008 60.388 3.008 28.896 0 50.536-3.158 66.076-9.781.624 3.833.963 7.779.963 11.599-.001 36.228-29.473 65.7-65.698 65.7zm83.899-104.007a10 10 0 00-7.22-3.081h-.063a9.999 9.999 0 00-7.244 3.173c-10.167 10.881-33.957 16.399-70.713 16.399-2.263 0-4.533-.022-6.804-.059 14.426-33.469 10.756-63.252 5.03-87.558 3.255.735 6.457 1.506 9.579 2.327 29.695 7.809 50.949 18.93 61.464 32.163a10 10 0 0013.615 1.935c5.711-4.052 22.264-9.858 37.937-10.21-5.589 8.446-10.954 15.817-13.195 17.609a9.999 9.999 0 00-2.586 12.499c1.97 3.71 5.23 7.303 9.007 11.462 6.354 7.001 13.908 15.323 16.19 25.036-18.49-1.477-31.945-8.073-44.997-21.695z"/><path d="M154.346 107.415h-.287c-5.523 0-10 4.477-10 10s4.477 10 10 10h.287c5.523 0 10-4.477 10-10s-4.477-10-10-10zm21.415 107.983h-.287c-5.523 0-10 4.477-10 10s4.477 10 10 10h.287c5.523 0 10-4.477 10-10s-4.477-10-10-10zm184.251-4.5h-.287c-5.523 0-10 4.477-10 10s4.477 10 10 10h.287c5.523 0 10-4.477 10-10s-4.477-10-10-10zm-82.5-14.75h-.287c-5.523 0-10 4.477-10 10s4.477 10 10 10h.287c5.523 0 10-4.477 10-10s-4.477-10-10-10z"/></symbol><symbol id="temp-icon-left-arrow" viewBox="0 0 31.494 31.494"><path d="M10.273 5.01a1.117 1.117 0 011.587 1.57l-8.047 8.047h26.554c.62 0 1.127.492 1.127 1.11 0 .62-.508 1.128-1.127 1.128H3.813l8.047 8.032c.43.444.43 1.16 0 1.587a1.112 1.112 0 01-1.587 0L.32 16.532a1.12 1.12 0 010-1.57l9.953-9.953z" fill="#FFF"/></symbol><symbol id="temp-icon-right-arrow" viewBox="0 0 31.49 31.49"><path d="M21.205 5.007a1.117 1.117 0 00-1.587 1.57l8.047 8.048H1.11c-.618 0-1.11.493-1.11 1.112 0 .62.492 1.127 1.11 1.127h26.555l-8.047 8.032c-.43.444-.43 1.16 0 1.587.444.444 1.16.444 1.587 0l9.952-9.952a1.092 1.092 0 000-1.57l-9.952-9.95z" fill="#1E201D"/></symbol></svg>